Coordinates
version=1
nRows=17
nColumns=40
inDegrees=yes

Units are S.I. units (second, meters, Newtons, ...)
Angles are in degrees.

endheader
time	pelvis_tilt	pelvis_list	pelvis_rotation	pelvis_tx	pelvis_ty	pelvis_tz	hip_flexion_r	hip_adduction_r	hip_rotation_r	knee_angle_r	knee_angle_r_beta	ankle_angle_r	subtalar_angle_r	mtp_angle_r	hip_flexion_l	hip_adduction_l	hip_rotation_l	knee_angle_l	knee_angle_l_beta	ankle_angle_l	subtalar_angle_l	mtp_angle_l	lumbar_extension	lumbar_bending	lumbar_rotation	arm_flex_r	arm_add_r	arm_rot_r	elbow_flex_r	pro_sup_r	wrist_flex_r	wrist_dev_r	arm_flex_l	arm_add_l	arm_rot_l	elbow_flex_l	pro_sup_l	wrist_flex_l	wrist_dev_l
      0.88000000	      3.49575461	     -0.22309660	      2.65789109	      0.08292260	      0.88670627	      0.95903116	     24.62069231	     -2.81929930	    -21.71286740	    -18.55186157	     -0.32379107	     -3.13081137	      0.94210396	      3.42587168	    -14.51152928	     -1.19258002	      8.64870756	    -13.09524577	     -0.22855516	      9.99432919	    -11.44662059	     -7.02864166	     -8.92190351	      3.88659276	     -6.45867127	     -3.19368088	     -9.58920104	      8.52102216	      7.69546170	     89.95437384	      0.00000000	      0.00000000	     17.41699390	     12.17312105	    -15.68108389	     33.57798582	     89.95437384	      0.00000000	      0.00000000
      0.89000000	      3.27042366	     -0.08865887	      3.22208430	      0.09499559	      0.88437162	      0.95885701	     25.21151450	     -3.46702923	    -23.87485984	    -16.70238332	     -0.29151158	     -3.56029322	      4.35764910	     -4.54357369	    -15.09928896	     -1.08827205	      8.39298446	    -13.07209026	     -0.22815102	      9.50695785	    -11.79736938	     -9.06223084	     -8.75129392	      3.83303502	     -6.73948000	     -3.86184490	     -9.58328701	      7.93944127	      7.34834373	     89.95437384	      0.00000000	      0.00000000	     18.12700602	     12.27780850	    -15.50943304	     35.11200497	     89.95437384	      0.00000000	      0.00000000
      0.90000000	      2.93858618	     -0.08551245	      3.63026976	      0.10702085	      0.88192465	      0.95925058	     25.91793211	     -3.61192785	    -24.77995153	    -15.19776470	     -0.26525103	     -3.53167883	      5.69833716	     -4.87376242	    -15.43273276	     -0.82640561	      8.24564262	    -13.37002415	     -0.23335094	      9.55806099	    -12.13484864	     -9.16052995	     -8.47260688	      3.87245233	     -6.89841907	     -4.44211064	     -9.57653445	      7.79060927	      6.94797218	     89.95437384	      0.00000000	      0.00000000	     18.68394607	     12.41513217	    -15.27468218	     36.75939218	     89.95437384	      0.00000000	      0.00000000
      0.91000000	      2.57222846	      0.01568113	      4.03267009	      0.11923185	      0.87950107	      0.95952346	     26.74733187	     -3.90141740	    -25.27499231	    -14.50493269	     -0.25315883	     -3.32770772	      6.42155478	     -5.07107641	    -15.72527889	     -0.68868604	      7.84249101	    -13.68630842	     -0.23887114	      9.52694139	    -12.41730292	     -9.19920625	     -8.14873277	      3.81273887	     -7.03916473	     -5.03880225	     -9.60119581	      7.53903582	      6.69187739	     89.95437384	      0.00000000	      0.00000000	     19.17547289	     12.54295893	    -15.09884436	     38.38269743	     89.95437384	      0.00000000	      0.00000000
      0.92000000	      2.37878586	      0.08406649	      4.39459687	      0.13182634	      0.87739625	      0.96008835	     27.47370997	     -4.13094155	    -24.93114945	    -14.70030138	     -0.25656866	     -3.32496193	      6.32242974	     -5.00875757	    -16.11785936	     -0.45236317	      7.69773028	    -14.18577085	     -0.24758841	      9.31794200	    -12.11128598	     -9.05994630	     -7.94044779	      3.75304681	     -6.95510168	     -5.82683585	     -9.55755114	      7.51908147	      6.63118344	     89.95437384	      0.00000000	      0.00000000	     19.89617627	     12.37946890	    -14.87919550	     39.27411630	     89.95437384	      0.00000000	      0.00000000
      0.93000000	      2.30916608	     -0.03464998	      4.95405725	      0.14481727	      0.87556893	      0.96004932	     27.96313414	     -4.32807148	    -24.50753619	    -15.50757785	     -0.27065829	     -3.12286160	      6.47940166	     -5.10925022	    -16.60546813	     -0.01656654	      6.73146805	    -14.76061998	     -0.25762142	      9.18720057	    -12.51264206	     -9.07714178	     -7.85740374	      4.01162008	     -7.32233552	     -6.15086855	     -9.56039386	      7.45403872	      6.06324547	     89.95437384	      0.00000000	      0.00000000	     19.94550788	     12.54195762	    -14.54652706	     41.32195457	     89.95437384	      0.00000000	      0.00000000
      0.94000000	      2.31325554	     -0.12356988	      5.52829753	      0.15832633	      0.87396889	      0.96013772	     28.35156374	     -4.51068106	    -23.55556459	    -16.86791713	     -0.29440069	     -3.26404769	      6.15865002	     -5.05527300	    -17.07377132	      0.46517457	      6.05069391	    -15.53188430	     -0.27108252	      8.78119769	    -12.41733420	     -8.94167843	     -7.76765563	      4.19611842	     -7.65651010	     -6.71312384	     -9.59652089	      7.37878976	      5.92869290	     89.95437384	      0.00000000	      0.00000000	     20.05266176	     12.53559630	    -14.10324319	     42.81592341	     89.95437384	      0.00000000	      0.00000000
      0.95000000	      2.42879773	     -0.14440403	      6.14163842	      0.17238154	      0.87265192	      0.96003442	     28.51051373	     -4.76319419	    -22.69231450	    -18.59756823	     -0.32458880	     -3.12683885	      5.00865949	     -4.94630374	    -17.74795502	      0.89526370	      5.29189995	    -16.14539112	     -0.28179023	      8.26294726	    -12.71122040	     -8.91233852	     -7.74631360	      4.34527033	     -8.25030474	     -6.92519754	     -9.56306840	      7.28509065	      5.32348428	     89.95437384	      0.00000000	      0.00000000	     19.68116400	     12.63238740	    -13.25309672	     44.80274333	     89.95437384	      0.00000000	      0.00000000
      0.96000000	      2.53815093	     -0.30348138	      6.55317560	      0.18679618	      0.87145269	      0.96039102	     28.58349717	     -4.60690543	    -21.43636801	    -20.42614829	     -0.35650354	     -3.15244641	      3.12484736	     -4.61038491	    -18.29792806	      1.44288740	      4.80544108	    -16.97909888	     -0.29634118	      7.44464985	    -12.68362034	     -8.82433239	     -7.68754945	      4.60958202	     -8.59229207	     -7.27020387	     -9.58520680	      7.14534894	      5.09143262	     89.95437384	      0.00000000	      0.00000000	     19.27429220	     12.61209172	    -12.37704330	     46.55557924	     89.95437384	      0.00000000	      0.00000000
      0.97000000	      2.52194902	     -0.51978349	      6.83380760	      0.20136053	      0.87020720	      0.96092938	     28.57179546	     -4.26723203	    -20.07739494	    -21.99797418	     -0.38393708	     -3.35731180	      2.47182717	     -4.39554598	    -18.56905112	      1.94655919	      4.16788108	    -18.10910523	     -0.31606351	      6.68454576	    -12.13039590	     -8.56389441	     -7.47859083	      4.90806167	     -8.51740569	     -7.93786515	     -9.68619334	      7.08442988	      5.34213641	     89.95437384	      0.00000000	      0.00000000	     19.08946196	     12.41250787	    -12.00279109	     47.81590494	     89.95437384	      0.00000000	      0.00000000
      0.98000000	      2.70358633	     -0.67321387	      7.11412862	      0.21657222	      0.86937061	      0.96176134	     28.34226444	     -3.92459099	    -19.54407977	    -23.62042629	     -0.41225421	     -4.70358738	     -0.94665583	     -3.50598297	    -19.11804697	      2.53550163	      4.17077858	    -19.08932189	     -0.33317152	      5.37002036	    -12.25415480	     -8.48541829	     -7.44055160	      5.12103483	     -9.02304774	     -7.90176750	     -9.62746810	      7.10385319	      4.75424501	     89.95437384	      0.00000000	      0.00000000	     18.05176099	     12.60682929	    -10.87826500	     50.05436378	     89.95437384	      0.00000000	      0.00000000
      0.99000000	      2.49527613	     -1.49516358	      7.03546809	      0.23124038	      0.86833662	      0.96376112	     28.40799291	     -2.28378196	    -17.45881756	    -24.03018234	     -0.41940580	     -7.39821471	     -5.27263617	      6.46407912	    -18.64547046	      3.94180634	      5.44692157	    -20.96567459	     -0.36592005	      2.91061383	    -13.52463331	    -12.75724401	     -6.99933498	      5.97585915	     -8.74824148	     -8.21975231	     -9.70838777	      6.80504317	      4.85805098	     89.95437384	      0.00000000	      0.00000000	     17.45509667	     12.37963562	    -10.09625783	     51.38284872	     89.95437384	      0.00000000	      0.00000000
      1.00000000	      2.33928545	     -1.74866222	      7.07147200	      0.24605635	      0.86779634	      0.96494096	     28.61815159	     -2.02099117	    -17.10087758	    -25.18484614	     -0.43955849	     -8.05782841	     -5.31532868	      6.26449272	    -18.32417524	      4.44677434	      5.25724585	    -22.73716435	     -0.39683838	      1.45086421	    -12.56562856	    -12.17076816	     -6.63700542	      6.25413330	     -8.71984293	     -8.39965878	     -9.75031844	      6.94513139	      4.83007808	     89.95437384	      0.00000000	      0.00000000	     16.73041178	     12.29582526	     -9.53896864	     52.68676538	     89.95437384	      0.00000000	      0.00000000
      1.01000000	      1.81149225	     -2.23467674	      7.12466620	      0.26071115	      0.86689551	      0.96654173	     29.26604354	     -1.56650963	    -17.10001100	    -26.69738486	     -0.46595727	     -8.17588185	     -7.02511760	      5.90752734	    -17.07307374	      5.42704862	      5.89627582	    -25.33480605	     -0.44217578	     -0.79480114	    -13.09551178	    -11.85354783	     -5.82831943	      6.70718734	     -8.79098094	     -8.52329567	     -9.77614961	      7.30684923	      4.84697802	     89.95437384	      0.00000000	      0.00000000	     15.82152677	     12.13599585	     -8.72367414	     53.87089312	     89.95437384	      0.00000000	      0.00000000
      1.02000000	      1.67520054	     -2.43938299	      7.01367148	      0.27552345	      0.86715360	      0.96807225	     29.39406659	     -1.24104123	    -16.98168234	    -28.55206510	     -0.49832754	     -6.92223175	     -6.95172138	      5.45234756	    -16.28994789	      5.92375773	      6.23386647	    -27.73336491	     -0.48403853	     -3.30112486	    -11.48902659	    -11.06020572	     -5.52678525	      6.89520552	     -8.57339131	     -8.59108019	     -9.77797243	      7.51071655	      4.96171111	     89.95437384	      0.00000000	      0.00000000	     15.09255577	     12.03944260	     -8.41708044	     54.76786151	     89.95437384	      0.00000000	      0.00000000
      1.03000000	      1.07384968	     -2.94163715	      6.91682006	      0.28992402	      0.86696258	      0.96979597	     29.94377573	     -0.43003454	    -16.32010193	    -29.93573882	     -0.52247721	     -5.92613941	     -7.10456455	      5.19017055	    -14.40960606	      7.07127084	      7.44252949	    -30.90136264	     -0.53933052	     -7.09877958	    -12.27500061	    -10.84286155	     -4.68957618	      7.35047620	     -8.49880625	     -8.51808573	     -9.83141607	      8.12736033	      5.00800295	     89.95437384	      0.00000000	      0.00000000	     14.16213742	     11.85169861	     -7.82852681	     55.54698462	     89.95437384	      0.00000000	      0.00000000
      1.04000000	      1.19940148	     -3.12872094	      6.94584255	      0.30470138	      0.86840596	      0.97079603	     29.34180979	      0.07203616	    -15.83521535	    -30.98596645	     -0.54080714	     -4.44487354	     -7.69801449	      4.95649870	    -13.43322093	      7.62333240	      7.64962293	    -33.54972688	     -0.58555320	    -11.25958696	    -10.19243064	     -9.89029195	     -4.67520755	      7.59016568	     -8.39187624	     -8.34716448	     -9.85962963	      8.40734996	      5.09144842	     89.95437384	      0.00000000	      0.00000000	     13.44261590	     11.65688392	     -7.65337645	     56.00008721	     89.95437384	      0.00000000	      0.00000000
